<svg xmlns="http://www.w3.org/2000/svg" viewBox="0 0 1200 1227" fill="#fff"><path d="M1199.61 0L741.64 654.77L1199.61 1226.99H1077.13L687.13 734.13L344.13 1226.99H0.39L478.13 545.23L39.13 0H164.13L525.13 460.13L844.13 0H1199.61ZM1012.13 1170.99H1119.13L687.13 613.13L1012.13 1170.99ZM187.13 56.99H77.13L525.13 613.13L187.13 56.99ZM600.13 666.99L844.13 1010.99L1077.13 666.99H600.13ZM525.13 666.99H147.13L344.13 934.99L525.13 666.99ZM600.13 613.13H1052.13L844.13 334.13L600.13 613.13ZM525.13 613.13L344.13 334.13L147.13 613.13H525.13ZM600.13 560.13L844.13 213.13L687.13 0H600.13V560.13ZM525.13 560.13V0H437.13L280.13 213.13L525.13 560.13Z"/></svg>
